<mxfile host="Electron" modified="2024-03-11T15:47:02.709Z" agent="Mozilla/5.0 (Macintosh; Intel Mac OS X 10_15_7) AppleWebKit/537.36 (KHTML, like Gecko) draw.io/24.0.4 Chrome/120.0.6099.109 Electron/28.1.0 Safari/537.36" etag="UMJwz9dJCVekXJ2yW87I" version="24.0.4" type="device">
  <diagram name="Page-1" id="0Zbd8G5VncU709x-szAZ">
    <mxGraphModel dx="1140" dy="826" grid="1" gridSize="10" guides="1" tooltips="1" connect="1" arrows="1" fold="1" page="1" pageScale="1" pageWidth="3300" pageHeight="4681" math="0" shadow="0">
      <root>
        <mxCell id="0" />
        <mxCell id="1" parent="0" />
        <mxCell id="HdUD7hzHtNREhUifunQa-23" style="edgeStyle=orthogonalEdgeStyle;rounded=0;orthogonalLoop=1;jettySize=auto;html=1;exitX=0.5;exitY=1;exitDx=0;exitDy=0;endArrow=none;endFill=0;shape=link;" parent="1" source="HdUD7hzHtNREhUifunQa-21" target="HdUD7hzHtNREhUifunQa-22" edge="1">
          <mxGeometry relative="1" as="geometry" />
        </mxCell>
        <mxCell id="HdUD7hzHtNREhUifunQa-49" style="edgeStyle=orthogonalEdgeStyle;rounded=0;orthogonalLoop=1;jettySize=auto;html=1;exitX=0.25;exitY=0;exitDx=0;exitDy=0;entryX=0.5;entryY=1;entryDx=0;entryDy=0;strokeColor=default;align=center;verticalAlign=middle;fontFamily=Helvetica;fontSize=11;fontColor=default;labelBackgroundColor=default;endArrow=none;endFill=0;" parent="1" source="HdUD7hzHtNREhUifunQa-21" target="HdUD7hzHtNREhUifunQa-48" edge="1">
          <mxGeometry relative="1" as="geometry" />
        </mxCell>
        <mxCell id="HdUD7hzHtNREhUifunQa-76" style="edgeStyle=orthogonalEdgeStyle;rounded=0;orthogonalLoop=1;jettySize=auto;html=1;exitX=0;exitY=0.5;exitDx=0;exitDy=0;entryX=1;entryY=0.5;entryDx=0;entryDy=0;strokeColor=default;align=center;verticalAlign=middle;fontFamily=Helvetica;fontSize=11;fontColor=default;labelBackgroundColor=default;endArrow=none;endFill=0;" parent="1" source="HdUD7hzHtNREhUifunQa-21" target="HdUD7hzHtNREhUifunQa-75" edge="1">
          <mxGeometry relative="1" as="geometry" />
        </mxCell>
        <mxCell id="SreHAF9LQcFx1illvAzD-44" style="edgeStyle=orthogonalEdgeStyle;rounded=0;orthogonalLoop=1;jettySize=auto;html=1;exitX=1;exitY=0.5;exitDx=0;exitDy=0;entryX=0;entryY=0.5;entryDx=0;entryDy=0;endArrow=none;endFill=0;" edge="1" parent="1" source="HdUD7hzHtNREhUifunQa-21" target="SreHAF9LQcFx1illvAzD-43">
          <mxGeometry relative="1" as="geometry" />
        </mxCell>
        <mxCell id="HdUD7hzHtNREhUifunQa-21" value="Klub Person" style="whiteSpace=wrap;html=1;align=center;" parent="1" vertex="1">
          <mxGeometry x="800" y="470" width="100" height="40" as="geometry" />
        </mxCell>
        <mxCell id="HdUD7hzHtNREhUifunQa-26" style="edgeStyle=orthogonalEdgeStyle;rounded=0;orthogonalLoop=1;jettySize=auto;html=1;exitX=1;exitY=1;exitDx=0;exitDy=0;entryX=0.5;entryY=0;entryDx=0;entryDy=0;strokeColor=default;align=center;verticalAlign=middle;fontFamily=Helvetica;fontSize=11;fontColor=default;labelBackgroundColor=default;endArrow=none;endFill=0;" parent="1" source="HdUD7hzHtNREhUifunQa-22" target="HdUD7hzHtNREhUifunQa-25" edge="1">
          <mxGeometry relative="1" as="geometry" />
        </mxCell>
        <mxCell id="HdUD7hzHtNREhUifunQa-27" style="edgeStyle=orthogonalEdgeStyle;rounded=0;orthogonalLoop=1;jettySize=auto;html=1;exitX=0;exitY=1;exitDx=0;exitDy=0;entryX=0.5;entryY=0;entryDx=0;entryDy=0;strokeColor=default;align=center;verticalAlign=middle;fontFamily=Helvetica;fontSize=11;fontColor=default;labelBackgroundColor=default;endArrow=none;endFill=0;" parent="1" source="HdUD7hzHtNREhUifunQa-22" target="HdUD7hzHtNREhUifunQa-24" edge="1">
          <mxGeometry relative="1" as="geometry" />
        </mxCell>
        <mxCell id="HdUD7hzHtNREhUifunQa-22" value="O" style="ellipse;whiteSpace=wrap;html=1;aspect=fixed;" parent="1" vertex="1">
          <mxGeometry x="830" y="560" width="40" height="40" as="geometry" />
        </mxCell>
        <mxCell id="HdUD7hzHtNREhUifunQa-64" style="edgeStyle=orthogonalEdgeStyle;rounded=0;orthogonalLoop=1;jettySize=auto;html=1;exitX=0;exitY=0.5;exitDx=0;exitDy=0;entryX=0;entryY=0.5;entryDx=0;entryDy=0;strokeColor=default;align=center;verticalAlign=middle;fontFamily=Helvetica;fontSize=11;fontColor=default;labelBackgroundColor=default;endArrow=none;endFill=0;" parent="1" source="HdUD7hzHtNREhUifunQa-24" target="HdUD7hzHtNREhUifunQa-60" edge="1">
          <mxGeometry relative="1" as="geometry" />
        </mxCell>
        <mxCell id="SreHAF9LQcFx1illvAzD-36" style="edgeStyle=orthogonalEdgeStyle;rounded=0;orthogonalLoop=1;jettySize=auto;html=1;exitX=0.25;exitY=1;exitDx=0;exitDy=0;entryX=0;entryY=0.5;entryDx=0;entryDy=0;endArrow=none;endFill=0;" edge="1" parent="1" source="HdUD7hzHtNREhUifunQa-24" target="SreHAF9LQcFx1illvAzD-28">
          <mxGeometry relative="1" as="geometry" />
        </mxCell>
        <mxCell id="HdUD7hzHtNREhUifunQa-24" value="Medlem" style="whiteSpace=wrap;html=1;align=center;" parent="1" vertex="1">
          <mxGeometry x="720" y="640" width="100" height="40" as="geometry" />
        </mxCell>
        <mxCell id="HdUD7hzHtNREhUifunQa-58" style="edgeStyle=orthogonalEdgeStyle;rounded=0;orthogonalLoop=1;jettySize=auto;html=1;exitX=0.5;exitY=1;exitDx=0;exitDy=0;entryX=1;entryY=0;entryDx=0;entryDy=0;strokeColor=default;align=center;verticalAlign=middle;fontFamily=Helvetica;fontSize=11;fontColor=default;labelBackgroundColor=default;endArrow=none;endFill=0;" parent="1" source="HdUD7hzHtNREhUifunQa-25" target="HdUD7hzHtNREhUifunQa-55" edge="1">
          <mxGeometry relative="1" as="geometry" />
        </mxCell>
        <mxCell id="HdUD7hzHtNREhUifunQa-63" style="edgeStyle=orthogonalEdgeStyle;rounded=0;orthogonalLoop=1;jettySize=auto;html=1;exitX=1;exitY=0.5;exitDx=0;exitDy=0;entryX=1;entryY=0.5;entryDx=0;entryDy=0;strokeColor=default;align=center;verticalAlign=middle;fontFamily=Helvetica;fontSize=11;fontColor=default;labelBackgroundColor=default;endArrow=none;endFill=0;" parent="1" source="HdUD7hzHtNREhUifunQa-25" target="HdUD7hzHtNREhUifunQa-60" edge="1">
          <mxGeometry relative="1" as="geometry">
            <Array as="points">
              <mxPoint x="1040" y="660" />
              <mxPoint x="1040" y="1070" />
            </Array>
          </mxGeometry>
        </mxCell>
        <mxCell id="SreHAF9LQcFx1illvAzD-27" style="edgeStyle=orthogonalEdgeStyle;rounded=0;orthogonalLoop=1;jettySize=auto;html=1;exitX=1;exitY=0.5;exitDx=0;exitDy=0;entryX=0.5;entryY=0;entryDx=0;entryDy=0;endArrow=none;endFill=0;" edge="1" parent="1" source="HdUD7hzHtNREhUifunQa-25" target="HdUD7hzHtNREhUifunQa-81">
          <mxGeometry relative="1" as="geometry" />
        </mxCell>
        <mxCell id="HdUD7hzHtNREhUifunQa-25" value="Medarbejder" style="whiteSpace=wrap;html=1;align=center;" parent="1" vertex="1">
          <mxGeometry x="880" y="640" width="100" height="40" as="geometry" />
        </mxCell>
        <mxCell id="HdUD7hzHtNREhUifunQa-28" value="" style="shape=requiredInterface;html=1;verticalLabelPosition=bottom;sketch=0;" parent="1" vertex="1">
          <mxGeometry x="890" y="580" width="20" height="30" as="geometry" />
        </mxCell>
        <mxCell id="HdUD7hzHtNREhUifunQa-31" value="" style="shape=requiredInterface;html=1;verticalLabelPosition=bottom;sketch=0;rotation=-180;" parent="1" vertex="1">
          <mxGeometry x="793.5" y="580" width="20" height="30" as="geometry" />
        </mxCell>
        <mxCell id="HdUD7hzHtNREhUifunQa-65" style="edgeStyle=orthogonalEdgeStyle;rounded=0;orthogonalLoop=1;jettySize=auto;html=1;exitX=0.5;exitY=1;exitDx=0;exitDy=0;entryX=0.5;entryY=0;entryDx=0;entryDy=0;strokeColor=default;align=center;verticalAlign=middle;fontFamily=Helvetica;fontSize=11;fontColor=default;labelBackgroundColor=default;endArrow=none;endFill=0;" parent="1" source="HdUD7hzHtNREhUifunQa-33" target="HdUD7hzHtNREhUifunQa-60" edge="1">
          <mxGeometry relative="1" as="geometry" />
        </mxCell>
        <mxCell id="SreHAF9LQcFx1illvAzD-13" style="edgeStyle=orthogonalEdgeStyle;rounded=0;orthogonalLoop=1;jettySize=auto;html=1;exitX=0;exitY=0.5;exitDx=0;exitDy=0;entryX=0.5;entryY=1;entryDx=0;entryDy=0;endArrow=none;endFill=0;" edge="1" parent="1" source="HdUD7hzHtNREhUifunQa-33" target="HdUD7hzHtNREhUifunQa-75">
          <mxGeometry relative="1" as="geometry" />
        </mxCell>
        <mxCell id="SreHAF9LQcFx1illvAzD-33" style="edgeStyle=orthogonalEdgeStyle;rounded=0;orthogonalLoop=1;jettySize=auto;html=1;exitX=0.75;exitY=0;exitDx=0;exitDy=0;entryX=0;entryY=1;entryDx=0;entryDy=0;endArrow=none;endFill=0;" edge="1" parent="1" source="HdUD7hzHtNREhUifunQa-33" target="SreHAF9LQcFx1illvAzD-28">
          <mxGeometry relative="1" as="geometry">
            <Array as="points">
              <mxPoint x="875" y="940" />
              <mxPoint x="1085" y="940" />
            </Array>
          </mxGeometry>
        </mxCell>
        <mxCell id="HdUD7hzHtNREhUifunQa-33" value="Ikke-Medlem" style="whiteSpace=wrap;html=1;align=center;" parent="1" vertex="1">
          <mxGeometry x="800" y="980" width="100" height="40" as="geometry" />
        </mxCell>
        <mxCell id="HdUD7hzHtNREhUifunQa-37" value="Medarbejdernyhed" style="whiteSpace=wrap;html=1;align=center;" parent="1" vertex="1">
          <mxGeometry x="1230" y="980" width="110" height="40" as="geometry" />
        </mxCell>
        <mxCell id="HdUD7hzHtNREhUifunQa-38" value="Nyhedsbrev" style="whiteSpace=wrap;html=1;align=center;" parent="1" vertex="1">
          <mxGeometry x="1060" y="980" width="110" height="40" as="geometry" />
        </mxCell>
        <mxCell id="HdUD7hzHtNREhUifunQa-47" style="edgeStyle=orthogonalEdgeStyle;rounded=0;orthogonalLoop=1;jettySize=auto;html=1;exitX=0.5;exitY=1;exitDx=0;exitDy=0;entryX=0.75;entryY=0;entryDx=0;entryDy=0;strokeColor=default;align=center;verticalAlign=middle;fontFamily=Helvetica;fontSize=11;fontColor=default;labelBackgroundColor=default;endArrow=none;endFill=0;" parent="1" source="HdUD7hzHtNREhUifunQa-46" target="HdUD7hzHtNREhUifunQa-21" edge="1">
          <mxGeometry relative="1" as="geometry" />
        </mxCell>
        <mxCell id="HdUD7hzHtNREhUifunQa-46" value="ID" style="ellipse;whiteSpace=wrap;html=1;align=center;fontStyle=4;fontFamily=Helvetica;fontSize=11;fontColor=default;labelBackgroundColor=default;" parent="1" vertex="1">
          <mxGeometry x="870" y="370" width="100" height="40" as="geometry" />
        </mxCell>
        <mxCell id="HdUD7hzHtNREhUifunQa-48" value="Navn" style="ellipse;whiteSpace=wrap;html=1;align=center;fontFamily=Helvetica;fontSize=11;fontColor=default;labelBackgroundColor=default;" parent="1" vertex="1">
          <mxGeometry x="730" y="370" width="100" height="40" as="geometry" />
        </mxCell>
        <mxCell id="HdUD7hzHtNREhUifunQa-51" style="edgeStyle=orthogonalEdgeStyle;rounded=0;orthogonalLoop=1;jettySize=auto;html=1;exitX=0.5;exitY=1;exitDx=0;exitDy=0;entryX=0.5;entryY=0;entryDx=0;entryDy=0;strokeColor=default;align=center;verticalAlign=middle;fontFamily=Helvetica;fontSize=11;fontColor=default;labelBackgroundColor=default;endArrow=none;endFill=0;" parent="1" source="HdUD7hzHtNREhUifunQa-50" target="HdUD7hzHtNREhUifunQa-21" edge="1">
          <mxGeometry relative="1" as="geometry" />
        </mxCell>
        <mxCell id="HdUD7hzHtNREhUifunQa-50" value="Email" style="ellipse;whiteSpace=wrap;html=1;align=center;fontFamily=Helvetica;fontSize=11;fontColor=default;labelBackgroundColor=default;" parent="1" vertex="1">
          <mxGeometry x="800" y="330" width="100" height="40" as="geometry" />
        </mxCell>
        <mxCell id="HdUD7hzHtNREhUifunQa-52" value="Bådplads" style="whiteSpace=wrap;html=1;align=center;" parent="1" vertex="1">
          <mxGeometry x="800" y="780" width="100" height="40" as="geometry" />
        </mxCell>
        <mxCell id="HdUD7hzHtNREhUifunQa-53" value="Udlejningsbåd" style="whiteSpace=wrap;html=1;align=center;" parent="1" vertex="1">
          <mxGeometry x="800" y="1130" width="100" height="40" as="geometry" />
        </mxCell>
        <mxCell id="HdUD7hzHtNREhUifunQa-59" style="edgeStyle=orthogonalEdgeStyle;rounded=0;orthogonalLoop=1;jettySize=auto;html=1;exitX=0.5;exitY=1;exitDx=0;exitDy=0;entryX=0.5;entryY=0;entryDx=0;entryDy=0;strokeColor=default;align=center;verticalAlign=middle;fontFamily=Helvetica;fontSize=11;fontColor=default;labelBackgroundColor=default;endArrow=none;endFill=0;" parent="1" source="HdUD7hzHtNREhUifunQa-55" target="HdUD7hzHtNREhUifunQa-52" edge="1">
          <mxGeometry relative="1" as="geometry" />
        </mxCell>
        <mxCell id="SreHAF9LQcFx1illvAzD-22" style="edgeStyle=orthogonalEdgeStyle;rounded=0;orthogonalLoop=1;jettySize=auto;html=1;exitX=0;exitY=0;exitDx=0;exitDy=0;entryX=0.5;entryY=1;entryDx=0;entryDy=0;endArrow=none;endFill=0;" edge="1" parent="1" source="HdUD7hzHtNREhUifunQa-55" target="HdUD7hzHtNREhUifunQa-24">
          <mxGeometry relative="1" as="geometry">
            <Array as="points">
              <mxPoint x="820" y="700" />
              <mxPoint x="770" y="700" />
            </Array>
          </mxGeometry>
        </mxCell>
        <mxCell id="HdUD7hzHtNREhUifunQa-55" value="Har en" style="shape=rhombus;perimeter=rhombusPerimeter;whiteSpace=wrap;html=1;align=center;fontFamily=Helvetica;fontSize=11;fontColor=default;labelBackgroundColor=default;" parent="1" vertex="1">
          <mxGeometry x="790" y="710" width="120" height="60" as="geometry" />
        </mxCell>
        <mxCell id="HdUD7hzHtNREhUifunQa-66" style="edgeStyle=orthogonalEdgeStyle;rounded=0;orthogonalLoop=1;jettySize=auto;html=1;exitX=0.5;exitY=1;exitDx=0;exitDy=0;entryX=0.5;entryY=0;entryDx=0;entryDy=0;strokeColor=default;align=center;verticalAlign=middle;fontFamily=Helvetica;fontSize=11;fontColor=default;labelBackgroundColor=default;endArrow=none;endFill=0;" parent="1" source="HdUD7hzHtNREhUifunQa-60" target="HdUD7hzHtNREhUifunQa-53" edge="1">
          <mxGeometry relative="1" as="geometry" />
        </mxCell>
        <mxCell id="HdUD7hzHtNREhUifunQa-60" value="Kan leje en" style="shape=rhombus;perimeter=rhombusPerimeter;whiteSpace=wrap;html=1;align=center;fontFamily=Helvetica;fontSize=11;fontColor=default;labelBackgroundColor=default;" parent="1" vertex="1">
          <mxGeometry x="790" y="1040" width="120" height="60" as="geometry" />
        </mxCell>
        <mxCell id="SreHAF9LQcFx1illvAzD-1" style="edgeStyle=orthogonalEdgeStyle;rounded=0;orthogonalLoop=1;jettySize=auto;html=1;exitX=0.75;exitY=0;exitDx=0;exitDy=0;entryX=0;entryY=0.5;entryDx=0;entryDy=0;endArrow=none;endFill=0;shape=link;" edge="1" parent="1" source="HdUD7hzHtNREhUifunQa-70" target="HdUD7hzHtNREhUifunQa-72">
          <mxGeometry relative="1" as="geometry" />
        </mxCell>
        <mxCell id="SreHAF9LQcFx1illvAzD-4" style="edgeStyle=orthogonalEdgeStyle;rounded=0;orthogonalLoop=1;jettySize=auto;html=1;exitX=0.5;exitY=0;exitDx=0;exitDy=0;entryX=1;entryY=0.5;entryDx=0;entryDy=0;endArrow=none;endFill=0;" edge="1" parent="1" source="HdUD7hzHtNREhUifunQa-70" target="SreHAF9LQcFx1illvAzD-3">
          <mxGeometry relative="1" as="geometry" />
        </mxCell>
        <mxCell id="HdUD7hzHtNREhUifunQa-70" value="Arrangementer" style="shape=ext;margin=3;double=1;whiteSpace=wrap;html=1;align=center;fontFamily=Helvetica;fontSize=11;fontColor=default;labelBackgroundColor=default;" parent="1" vertex="1">
          <mxGeometry x="430" y="470" width="100" height="40" as="geometry" />
        </mxCell>
        <mxCell id="HdUD7hzHtNREhUifunQa-74" style="edgeStyle=orthogonalEdgeStyle;rounded=0;orthogonalLoop=1;jettySize=auto;html=1;exitX=1;exitY=0.5;exitDx=0;exitDy=0;entryX=0;entryY=0.5;entryDx=0;entryDy=0;strokeColor=default;align=center;verticalAlign=middle;fontFamily=Helvetica;fontSize=11;fontColor=default;labelBackgroundColor=default;endArrow=none;endFill=0;" parent="1" source="HdUD7hzHtNREhUifunQa-72" target="HdUD7hzHtNREhUifunQa-21" edge="1">
          <mxGeometry relative="1" as="geometry" />
        </mxCell>
        <mxCell id="HdUD7hzHtNREhUifunQa-72" value="Opret" style="shape=rhombus;double=1;perimeter=rhombusPerimeter;whiteSpace=wrap;html=1;align=center;fontFamily=Helvetica;fontSize=11;fontColor=default;labelBackgroundColor=default;" parent="1" vertex="1">
          <mxGeometry x="600" y="390" width="120" height="60" as="geometry" />
        </mxCell>
        <mxCell id="SreHAF9LQcFx1illvAzD-2" style="edgeStyle=orthogonalEdgeStyle;rounded=0;orthogonalLoop=1;jettySize=auto;html=1;exitX=0;exitY=0.5;exitDx=0;exitDy=0;entryX=0.75;entryY=1;entryDx=0;entryDy=0;endArrow=none;endFill=0;" edge="1" parent="1" source="HdUD7hzHtNREhUifunQa-75" target="HdUD7hzHtNREhUifunQa-70">
          <mxGeometry relative="1" as="geometry" />
        </mxCell>
        <mxCell id="HdUD7hzHtNREhUifunQa-75" value="Tilmeld" style="shape=rhombus;double=1;perimeter=rhombusPerimeter;whiteSpace=wrap;html=1;align=center;fontFamily=Helvetica;fontSize=11;fontColor=default;labelBackgroundColor=default;" parent="1" vertex="1">
          <mxGeometry x="600" y="540" width="120" height="60" as="geometry" />
        </mxCell>
        <mxCell id="HdUD7hzHtNREhUifunQa-79" style="edgeStyle=orthogonalEdgeStyle;rounded=0;orthogonalLoop=1;jettySize=auto;html=1;exitX=0;exitY=0.5;exitDx=0;exitDy=0;entryX=1;entryY=0.5;entryDx=0;entryDy=0;strokeColor=default;align=center;verticalAlign=middle;fontFamily=Helvetica;fontSize=11;fontColor=default;labelBackgroundColor=default;endArrow=none;endFill=0;" parent="1" source="HdUD7hzHtNREhUifunQa-78" target="HdUD7hzHtNREhUifunQa-70" edge="1">
          <mxGeometry relative="1" as="geometry" />
        </mxCell>
        <mxCell id="HdUD7hzHtNREhUifunQa-80" style="edgeStyle=orthogonalEdgeStyle;rounded=0;orthogonalLoop=1;jettySize=auto;html=1;exitX=1;exitY=0.5;exitDx=0;exitDy=0;entryX=0;entryY=0.5;entryDx=0;entryDy=0;strokeColor=default;align=center;verticalAlign=middle;fontFamily=Helvetica;fontSize=11;fontColor=default;labelBackgroundColor=default;endArrow=none;endFill=0;" parent="1" source="HdUD7hzHtNREhUifunQa-78" target="HdUD7hzHtNREhUifunQa-21" edge="1">
          <mxGeometry relative="1" as="geometry" />
        </mxCell>
        <mxCell id="HdUD7hzHtNREhUifunQa-78" value="Hjælper" style="shape=rhombus;double=1;perimeter=rhombusPerimeter;whiteSpace=wrap;html=1;align=center;fontFamily=Helvetica;fontSize=11;fontColor=default;labelBackgroundColor=default;" parent="1" vertex="1">
          <mxGeometry x="600" y="460" width="120" height="60" as="geometry" />
        </mxCell>
        <mxCell id="HdUD7hzHtNREhUifunQa-90" style="edgeStyle=orthogonalEdgeStyle;rounded=0;orthogonalLoop=1;jettySize=auto;html=1;exitX=0.5;exitY=1;exitDx=0;exitDy=0;entryX=0.5;entryY=0;entryDx=0;entryDy=0;strokeColor=default;align=center;verticalAlign=middle;fontFamily=Helvetica;fontSize=11;fontColor=default;labelBackgroundColor=default;endArrow=none;endFill=0;" parent="1" source="HdUD7hzHtNREhUifunQa-81" target="HdUD7hzHtNREhUifunQa-37" edge="1">
          <mxGeometry relative="1" as="geometry" />
        </mxCell>
        <mxCell id="HdUD7hzHtNREhUifunQa-81" value="Kan tilmelde sig" style="shape=rhombus;perimeter=rhombusPerimeter;whiteSpace=wrap;html=1;align=center;fontFamily=Helvetica;fontSize=11;fontColor=default;labelBackgroundColor=default;" parent="1" vertex="1">
          <mxGeometry x="1225" y="860" width="120" height="60" as="geometry" />
        </mxCell>
        <mxCell id="SreHAF9LQcFx1illvAzD-26" style="edgeStyle=orthogonalEdgeStyle;rounded=0;orthogonalLoop=1;jettySize=auto;html=1;exitX=0.5;exitY=1;exitDx=0;exitDy=0;entryX=1;entryY=0;entryDx=0;entryDy=0;endArrow=none;endFill=0;" edge="1" parent="1" source="HdUD7hzHtNREhUifunQa-86" target="HdUD7hzHtNREhUifunQa-81">
          <mxGeometry relative="1" as="geometry" />
        </mxCell>
        <mxCell id="HdUD7hzHtNREhUifunQa-86" value="Leverings Type" style="ellipse;whiteSpace=wrap;html=1;align=center;fontFamily=Helvetica;fontSize=11;fontColor=default;labelBackgroundColor=default;" parent="1" vertex="1">
          <mxGeometry x="1330" y="770" width="100" height="40" as="geometry" />
        </mxCell>
        <mxCell id="SreHAF9LQcFx1illvAzD-3" value="Tidspunkt" style="ellipse;whiteSpace=wrap;html=1;align=center;fontFamily=Helvetica;fontSize=11;fontColor=default;labelBackgroundColor=default;" vertex="1" parent="1">
          <mxGeometry x="280" y="320" width="100" height="40" as="geometry" />
        </mxCell>
        <mxCell id="SreHAF9LQcFx1illvAzD-6" style="edgeStyle=orthogonalEdgeStyle;rounded=0;orthogonalLoop=1;jettySize=auto;html=1;exitX=1;exitY=0.5;exitDx=0;exitDy=0;entryX=0.25;entryY=0;entryDx=0;entryDy=0;endArrow=none;endFill=0;" edge="1" parent="1" source="SreHAF9LQcFx1illvAzD-5" target="HdUD7hzHtNREhUifunQa-70">
          <mxGeometry relative="1" as="geometry" />
        </mxCell>
        <mxCell id="SreHAF9LQcFx1illvAzD-5" value="Event navn" style="ellipse;whiteSpace=wrap;html=1;align=center;fontFamily=Helvetica;fontSize=11;fontColor=default;labelBackgroundColor=default;" vertex="1" parent="1">
          <mxGeometry x="280" y="370" width="100" height="40" as="geometry" />
        </mxCell>
        <mxCell id="SreHAF9LQcFx1illvAzD-48" style="edgeStyle=orthogonalEdgeStyle;rounded=0;orthogonalLoop=1;jettySize=auto;html=1;exitX=1;exitY=0.5;exitDx=0;exitDy=0;entryX=0;entryY=0.25;entryDx=0;entryDy=0;endArrow=none;endFill=0;" edge="1" parent="1" source="SreHAF9LQcFx1illvAzD-7" target="HdUD7hzHtNREhUifunQa-70">
          <mxGeometry relative="1" as="geometry" />
        </mxCell>
        <mxCell id="SreHAF9LQcFx1illvAzD-7" value="Billede" style="ellipse;whiteSpace=wrap;html=1;align=center;fontFamily=Helvetica;fontSize=11;fontColor=default;labelBackgroundColor=default;" vertex="1" parent="1">
          <mxGeometry x="280" y="420" width="100" height="40" as="geometry" />
        </mxCell>
        <mxCell id="SreHAF9LQcFx1illvAzD-10" style="edgeStyle=orthogonalEdgeStyle;rounded=0;orthogonalLoop=1;jettySize=auto;html=1;exitX=1;exitY=0.5;exitDx=0;exitDy=0;entryX=0.25;entryY=1;entryDx=0;entryDy=0;endArrow=none;endFill=0;" edge="1" parent="1" source="SreHAF9LQcFx1illvAzD-9" target="HdUD7hzHtNREhUifunQa-70">
          <mxGeometry relative="1" as="geometry" />
        </mxCell>
        <mxCell id="SreHAF9LQcFx1illvAzD-9" value="Beskrivelse" style="ellipse;whiteSpace=wrap;html=1;align=center;fontFamily=Helvetica;fontSize=11;fontColor=default;labelBackgroundColor=default;" vertex="1" parent="1">
          <mxGeometry x="280" y="570" width="100" height="40" as="geometry" />
        </mxCell>
        <mxCell id="SreHAF9LQcFx1illvAzD-16" style="edgeStyle=orthogonalEdgeStyle;rounded=0;orthogonalLoop=1;jettySize=auto;html=1;exitX=0.5;exitY=0;exitDx=0;exitDy=0;entryX=0;entryY=0.5;entryDx=0;entryDy=0;endArrow=none;endFill=0;" edge="1" parent="1" source="SreHAF9LQcFx1illvAzD-14" target="HdUD7hzHtNREhUifunQa-53">
          <mxGeometry relative="1" as="geometry" />
        </mxCell>
        <mxCell id="SreHAF9LQcFx1illvAzD-14" value="&lt;u&gt;Båd nr&lt;/u&gt;" style="ellipse;whiteSpace=wrap;html=1;align=center;fontFamily=Helvetica;fontSize=11;fontColor=default;labelBackgroundColor=default;" vertex="1" parent="1">
          <mxGeometry x="730" y="1190" width="100" height="40" as="geometry" />
        </mxCell>
        <mxCell id="SreHAF9LQcFx1illvAzD-18" style="edgeStyle=orthogonalEdgeStyle;rounded=0;orthogonalLoop=1;jettySize=auto;html=1;exitX=0.5;exitY=0;exitDx=0;exitDy=0;entryX=1;entryY=0.5;entryDx=0;entryDy=0;endArrow=none;endFill=0;" edge="1" parent="1" source="SreHAF9LQcFx1illvAzD-17" target="HdUD7hzHtNREhUifunQa-53">
          <mxGeometry relative="1" as="geometry" />
        </mxCell>
        <mxCell id="SreHAF9LQcFx1illvAzD-17" value="Pris" style="ellipse;whiteSpace=wrap;html=1;align=center;fontFamily=Helvetica;fontSize=11;fontColor=default;labelBackgroundColor=default;" vertex="1" parent="1">
          <mxGeometry x="870" y="1190" width="100" height="40" as="geometry" />
        </mxCell>
        <mxCell id="SreHAF9LQcFx1illvAzD-20" style="edgeStyle=orthogonalEdgeStyle;rounded=0;orthogonalLoop=1;jettySize=auto;html=1;exitX=0.5;exitY=0;exitDx=0;exitDy=0;entryX=0.5;entryY=1;entryDx=0;entryDy=0;endArrow=none;endFill=0;" edge="1" parent="1" source="SreHAF9LQcFx1illvAzD-19" target="HdUD7hzHtNREhUifunQa-53">
          <mxGeometry relative="1" as="geometry" />
        </mxCell>
        <mxCell id="SreHAF9LQcFx1illvAzD-19" value="Er ledig?" style="ellipse;whiteSpace=wrap;html=1;align=center;fontFamily=Helvetica;fontSize=11;fontColor=default;labelBackgroundColor=default;" vertex="1" parent="1">
          <mxGeometry x="800" y="1230" width="100" height="40" as="geometry" />
        </mxCell>
        <mxCell id="SreHAF9LQcFx1illvAzD-32" style="edgeStyle=orthogonalEdgeStyle;rounded=0;orthogonalLoop=1;jettySize=auto;html=1;exitX=0.5;exitY=1;exitDx=0;exitDy=0;entryX=0.5;entryY=0;entryDx=0;entryDy=0;endArrow=none;endFill=0;" edge="1" parent="1" source="SreHAF9LQcFx1illvAzD-28" target="HdUD7hzHtNREhUifunQa-38">
          <mxGeometry relative="1" as="geometry" />
        </mxCell>
        <mxCell id="SreHAF9LQcFx1illvAzD-28" value="Kan tilmelde sig" style="shape=rhombus;perimeter=rhombusPerimeter;whiteSpace=wrap;html=1;align=center;fontFamily=Helvetica;fontSize=11;fontColor=default;labelBackgroundColor=default;" vertex="1" parent="1">
          <mxGeometry x="1055" y="860" width="120" height="60" as="geometry" />
        </mxCell>
        <mxCell id="SreHAF9LQcFx1illvAzD-30" style="edgeStyle=orthogonalEdgeStyle;rounded=0;orthogonalLoop=1;jettySize=auto;html=1;exitX=0.5;exitY=1;exitDx=0;exitDy=0;entryX=1;entryY=0;entryDx=0;entryDy=0;endArrow=none;endFill=0;" edge="1" parent="1" source="SreHAF9LQcFx1illvAzD-29" target="SreHAF9LQcFx1illvAzD-28">
          <mxGeometry relative="1" as="geometry" />
        </mxCell>
        <mxCell id="SreHAF9LQcFx1illvAzD-29" value="Leverings Type" style="ellipse;whiteSpace=wrap;html=1;align=center;fontFamily=Helvetica;fontSize=11;fontColor=default;labelBackgroundColor=default;" vertex="1" parent="1">
          <mxGeometry x="1150" y="770" width="100" height="40" as="geometry" />
        </mxCell>
        <mxCell id="SreHAF9LQcFx1illvAzD-38" style="edgeStyle=orthogonalEdgeStyle;rounded=0;orthogonalLoop=1;jettySize=auto;html=1;exitX=0.5;exitY=0;exitDx=0;exitDy=0;entryX=0.5;entryY=1;entryDx=0;entryDy=0;endArrow=none;endFill=0;" edge="1" parent="1" source="SreHAF9LQcFx1illvAzD-37" target="HdUD7hzHtNREhUifunQa-52">
          <mxGeometry relative="1" as="geometry" />
        </mxCell>
        <mxCell id="SreHAF9LQcFx1illvAzD-37" value="&lt;u&gt;Placering&lt;/u&gt;" style="ellipse;whiteSpace=wrap;html=1;align=center;fontFamily=Helvetica;fontSize=11;fontColor=default;labelBackgroundColor=default;" vertex="1" parent="1">
          <mxGeometry x="800" y="840" width="100" height="40" as="geometry" />
        </mxCell>
        <mxCell id="SreHAF9LQcFx1illvAzD-40" style="edgeStyle=orthogonalEdgeStyle;rounded=0;orthogonalLoop=1;jettySize=auto;html=1;exitX=0;exitY=0.5;exitDx=0;exitDy=0;entryX=1;entryY=0.5;entryDx=0;entryDy=0;endArrow=none;endFill=0;" edge="1" parent="1" source="SreHAF9LQcFx1illvAzD-39" target="HdUD7hzHtNREhUifunQa-52">
          <mxGeometry relative="1" as="geometry" />
        </mxCell>
        <mxCell id="SreHAF9LQcFx1illvAzD-39" value="Pris" style="ellipse;whiteSpace=wrap;html=1;align=center;fontFamily=Helvetica;fontSize=11;fontColor=default;labelBackgroundColor=default;" vertex="1" parent="1">
          <mxGeometry x="930" y="780" width="100" height="40" as="geometry" />
        </mxCell>
        <mxCell id="SreHAF9LQcFx1illvAzD-43" value="Adresse" style="ellipse;whiteSpace=wrap;html=1;align=center;fontFamily=Helvetica;fontSize=11;fontColor=default;labelBackgroundColor=default;" vertex="1" parent="1">
          <mxGeometry x="940" y="430" width="100" height="40" as="geometry" />
        </mxCell>
        <mxCell id="SreHAF9LQcFx1illvAzD-46" style="edgeStyle=orthogonalEdgeStyle;rounded=0;orthogonalLoop=1;jettySize=auto;html=1;exitX=1;exitY=0.5;exitDx=0;exitDy=0;entryX=0.5;entryY=1;entryDx=0;entryDy=0;endArrow=none;endFill=0;" edge="1" parent="1" source="SreHAF9LQcFx1illvAzD-45" target="HdUD7hzHtNREhUifunQa-70">
          <mxGeometry relative="1" as="geometry" />
        </mxCell>
        <mxCell id="SreHAF9LQcFx1illvAzD-45" value="Arrangør" style="ellipse;whiteSpace=wrap;html=1;align=center;fontFamily=Helvetica;fontSize=11;fontColor=default;labelBackgroundColor=default;" vertex="1" parent="1">
          <mxGeometry x="280" y="620" width="100" height="40" as="geometry" />
        </mxCell>
        <mxCell id="SreHAF9LQcFx1illvAzD-50" style="edgeStyle=orthogonalEdgeStyle;rounded=0;orthogonalLoop=1;jettySize=auto;html=1;exitX=1;exitY=0.5;exitDx=0;exitDy=0;entryX=0;entryY=0.75;entryDx=0;entryDy=0;endArrow=none;endFill=0;" edge="1" parent="1" source="SreHAF9LQcFx1illvAzD-49" target="HdUD7hzHtNREhUifunQa-70">
          <mxGeometry relative="1" as="geometry" />
        </mxCell>
        <mxCell id="SreHAF9LQcFx1illvAzD-49" value="Beskrivelse" style="ellipse;whiteSpace=wrap;html=1;align=center;fontFamily=Helvetica;fontSize=11;fontColor=default;labelBackgroundColor=default;" vertex="1" parent="1">
          <mxGeometry x="280" y="520" width="100" height="40" as="geometry" />
        </mxCell>
        <mxCell id="SreHAF9LQcFx1illvAzD-51" value="&lt;u&gt;Arrangement ID&lt;/u&gt;" style="ellipse;whiteSpace=wrap;html=1;align=center;fontFamily=Helvetica;fontSize=11;fontColor=default;labelBackgroundColor=default;" vertex="1" parent="1">
          <mxGeometry x="280" y="470" width="100" height="40" as="geometry" />
        </mxCell>
      </root>
    </mxGraphModel>
  </diagram>
</mxfile>
